<svg xmlns="http://www.w3.org/2000/svg" width="181.381" height="45.001" viewBox="0 0 181.381 45.001">
  <path id="잘큼센터_LOGO" data-name="잘큼센터 LOGO" d="M134,42.623l2-1c.175.412.471,1,1,1,.765,0,1-1.049,1-2-.26.507-.482,1-1,1a3.13,3.13,0,0,1-3-3,2.99,2.99,0,0,1,3-3c.589,0,.706-.339,1,0h2v5a2.823,2.823,0,0,1-3,3C135.764,43.624,134.376,43.511,134,42.623Zm2-4c0,1.077.247,1,1,1,.564,0,.883-.376,1-1v-1c-.13-.645-.471-1-1-1C136.177,36.624,136,37.61,136,38.624ZM3.919,42.629l-.193-.005h-.7l-.026,0v0H0l4-32c4.143-4.68,11.729-6.186,14-6h1l1,5-1.319.66A52.559,52.559,0,0,1,24,9.625h1l.894,7.151q1.536-.1,3.106-.151h1v.86a32.416,32.416,0,0,1,3.564.057c.99.052,1.885.1,2.436.082.208-.927,1-4,1-4v-1c4.092-.084,16.418,1.207,25,5h1l4,25H5v0c-.12.013-.27.017-.436.017C4.363,42.642,4.139,42.636,3.919,42.629Zm50.081-9c1.568.495,3.785,3.479,4,5v2h7c-.121-.794-.89-5.014-1.723-9.553L63,31.624c-7.077-2.238-22.722-3.025-30.8-3.009,1.049,4.994,2.126,9.944,2.578,12.008H42v-6a2.389,2.389,0,0,1,1-2,2.576,2.576,0,0,1,2-1c1.653.253,2.876,2.478,3,4l.715,5H51.8l-.8-4a2.179,2.179,0,0,1,1-2c.5-.429,1.068-1.046,1.7-1.046A.977.977,0,0,1,54,33.625Zm-1,2c-.264.228-.045.583,0,1v4h3.666l-.666-2c-.139-1-1.039-2.7-2-3a2.2,2.2,0,0,0-.615-.1A.6.6,0,0,0,53,35.625Zm-9-2c-.333.314-.02.563,0,1v6h3.714l-.715-5a2.518,2.518,0,0,0-2-2,5.3,5.3,0,0,0-.689-.095A.441.441,0,0,0,44,33.623Zm-14,1v6h2.77c-.474-2.062-1.6-7-2.693-11.984A99.993,99.993,0,0,0,11,30.56v.064a2.2,2.2,0,0,1-.394.023,38.277,38.277,0,0,0-7.574,2.47c-.539,3.9-.956,6.933-1.031,7.506H3.5l.5-2c.213-1.52,1.431-4.505,3-5,.753-.237,1.426.5,2,1a2.18,2.18,0,0,1,1,2v4h3v-5c.122-1.522,1.347-3.746,3-4a2.576,2.576,0,0,1,2,1,2.391,2.391,0,0,1,1,2v6h4v-6c.026-1.579,2.251-3,4-3A3.008,3.008,0,0,1,30,34.624Zm-5,0v6h3v-6c-.014-.851-.128-2-1-2A2.433,2.433,0,0,0,25,34.624Zm-8-1a2.514,2.514,0,0,0-2,2l-.715,5H18v-6c.022-.437.334-.686,0-1a.444.444,0,0,0-.314-.1A5.013,5.013,0,0,0,17,33.623Zm-12,5v2H8.2l.8-4c.047-.417-.733-.771-1-1C7.037,35.928,5.141,37.627,5,38.624ZM4.22,24.51c-.352,2.546-.713,5.16-1.039,7.526a45.016,45.016,0,0,1,6.052-2.344L10,26.625c.2-1.416,1.538-3.54,3-4,.7-.221,1.467-.462,2,0a2.31,2.31,0,0,1,1,2l-.708,3.541Q16.607,27.9,18,27.68V23.625a3.6,3.6,0,0,1,3-3c.708-.108,1.448-.517,2,0a4.959,4.959,0,0,1,1,3v3.333q2.7-.227,5.645-.306c-.651-3.02-1.253-5.912-1.645-8.027C18.95,19.008,11.413,20.807,4.22,24.51ZM57,22.624c1.462.461,2.8,2.585,3,4v2.031c1.072.2,2.065.425,2.955.664C62,24.144,61.069,19.072,61,18.623c-7.885-3.337-18.549-4.009-23-4-.211.946-1,4-1,4H36c-.043,0-3.418.355-5.678.738.387,2.027.908,4.593,1.462,7.256,1.283-.01,2.7,0,4.216.026V22.623a3.166,3.166,0,0,1,3-3c1.627,0,1.975,1.53,2,3l.841,4.206c1.041.047,2.1.1,3.159.167V23.625a4.964,4.964,0,0,1,1-3c.551-.517,1.293-.108,2,0a3.6,3.6,0,0,1,3,3l.648,3.89c.8.078,1.582.162,2.352.251V24.624a2.314,2.314,0,0,1,1-2,1.126,1.126,0,0,1,.769-.264A4.349,4.349,0,0,1,57,22.624Zm-44,1c-.895.283-1.87,2.073-2,3v2.55q1.443-.4,3-.74V24.624c.04-.387.248-.786,0-1a.617.617,0,0,0-.385-.1A2.242,2.242,0,0,0,13,23.624Zm42,1,.67,3.348c1.014.134,1.993.278,2.924.433L58,26.625c-.131-.929-1.105-2.718-2-3C55.751,23.838,54.958,24.237,55,24.624Zm-33-3a2.68,2.68,0,0,0-2,2l-.774,3.87q1.821-.259,3.774-.447V23.625c.019-.407-.689-.709-1-1-.17-.16.355-1,.034-1Zm25,1c-.311.291-.018.593,0,1v3.5c1,.07,2.009.149,3,.236V23.625a2.676,2.676,0,0,0-2-2l-.038,0C47.583,21.622,47.17,22.465,47,22.625Zm-10,0v4.039c.971.023,1.974.052,3,.09V22.623c-.014-.793-.189-1-1-1S37.013,21.83,37,22.623ZM5.191,17.487c-.184,1.325-.387,2.8-.6,4.349q.7-.331,1.41-.637V19.625c.173-1.238,1.722-2.6,3-3,.616-.193.531-.4,1,0a2.613,2.613,0,0,1,1,2v.739q1.139-.351,2.3-.653l.7-2.087c.1-1.241.651-2.794,2-3,.619-.1,1.518-.454,2,0a2.876,2.876,0,0,1,1,2v1.909q2.4-.381,4.891-.6c-.243-1.55-.811-5.241-.891-6.306C13.781,11.466,9.4,14.467,5.191,17.487ZM9,17.625a3.21,3.21,0,0,0-2,2v1.156q1.477-.6,3-1.1V18.625c.037-.341.216-.813,0-1a.655.655,0,0,0-.388-.085A2.292,2.292,0,0,0,9,17.625Zm6-1V18.3q1.481-.336,3-.6V15.624c.017-.355-.73-.746-1-1A3,3,0,0,0,15,16.624Zm-9-5c-.017.133-.23,1.677-.55,3.99a32.231,32.231,0,0,1,12.5-5.194c-.181-.812-.844-3.815-.954-4.8C14.628,5.831,9.433,7.9,6,11.623Zm170,30v-6h1v1a2.6,2.6,0,0,1,2-1c-.14-.084.235,0,0,0v2c-.131-.105-.694-1-1-1-.647,0-1,1.2-1,2v3Zm-51,0v-6h1v6Zm-4,0-1-4-1,4h-2l-1-6h1l1,4,1-4h2l1,4v-4h2l-2,6Zm-15,0v-6h1v1a2.6,2.6,0,0,1,2-1,3.978,3.978,0,0,1,1,0l-1,2c-.13-.105.306-1,0-1-.647,0-1,1.2-1,2v3Zm-14,0v-9h2v9Zm-3,0v-9h2v9Zm-10,0-1-5-2,5H74l-1-8h1l1,5,2-5h1l2,5,1-5h1l-1,8Zm90-3a2.911,2.911,0,0,1,3-3c1.588,0,2,1.066,2,3h-3c.023,1.024.258,2,1,2,.517,0,.824-.577,1-1h1c-.306.993-.743,2-2,2A2.866,2.866,0,0,1,169,38.624Zm2-1h2c-.083-.645-.412-1-1-1S171.154,36.978,171,37.624Zm-6,2v-3h-1v-1h1v-1h1v1h2v1h-2v3a1.019,1.019,0,0,0,1,1c.436,0,.894-.812,1-1l1,1a2.972,2.972,0,0,1-2,1C165.506,41.623,165,41.282,165,39.623Zm-4,2v-4c0-.791.683-1,0-1-.753,0-1,.356-1,1v4h-2v-6h2v1c.341-.445.283-1,1-1,1.377,0,2,.617,2,2v4Zm-10-3a2.912,2.912,0,0,1,3-3,2.873,2.873,0,0,1,3,3h-4c.023,1.024.258,2,1,2,.517,0,.823-.577,1-1h2a3.446,3.446,0,0,1-3,2A2.866,2.866,0,0,1,151,38.624Zm2-1h2c-.083-.645-.411-1-1-1S153.153,36.978,153,37.624Zm-9,0v-1c0-2.431,1.082-3,3-3,1.53,0,2.635.448,3,2h-1c-.153-.783-1.153-1-2-1-1.118,0-1,.5-1,2v1c0,1.469-.083,3,1,3,.776,0,1.754-1.123,2-2l1,1c-.317,1.383-1.424,2-3,2C145.082,41.623,144,40.053,144,37.624Zm-13,4v-4c0-.791.683-1,0-1-.752,0-1,.356-1,1v4h-2v-6h2v1c.342-.445.283-1,1-1,1.377,0,2,.617,2,2v4Zm-21-3a2.911,2.911,0,0,1,3-3c1.553,0,2,1.1,2,3s-.352,3-2,3A2.866,2.866,0,0,1,110,38.624Zm1,0a2.254,2.254,0,0,0,2,2c.766,0,1-.9,1-2s-.247-2-1-2A2.256,2.256,0,0,0,111,38.624Zm-13-1v-1c0-2.431,1.046-3,3-3,1.529,0,2.613.469,3,2h-1c-.153-.783-1.152-1-2-1-1.117,0-1,.5-1,2v1c0,1.469-.081,3,1,3a2.2,2.2,0,0,0,2-2h-2v-1h3v1a2.865,2.865,0,0,1-3,3C99.081,41.623,98,40.053,98,37.624Zm-16,1a2.911,2.911,0,0,1,3-3,2.873,2.873,0,0,1,3,3H84c.023,1.024.258,2,1,2,.518,0,.823-.577,1-1h2a3.445,3.445,0,0,1-3,2A2.866,2.866,0,0,1,82,38.624Zm2-1h2c-.083-.645-.411-1-1-1S84.153,36.978,84,37.624Zm41-3v-2h1v2Zm52-5v-16h-6v-3h6v-11h3v30Zm-44-1v-9h3v6h17v3Zm-31,0v-10h20v10Zm4-2h13v-6H106Zm-31,2v-7H90v-3H74v-2H93v7H78v3H94v2Zm82-6v-20h14v3H160v5h9v3h-9v6a60.965,60.965,0,0,0,12-1l1,3a66.687,66.687,0,0,1-13,1Zm-8-1v-22h3v22Zm-6-1v-11h-3v-2h3v-7h4v20Zm-16-5a11.655,11.655,0,0,0,6-10v-3h4v3c0,4.133,2.067,7.581,5,9l-1,2c-2.1-.986-5.2-2.9-6-5-.772,2.375-3.343,4.643-6,6C128.382,16.823,127.618,16.394,127,15.623Zm-28,0v-3h19c.217-.987-.125-2.582,0-4l-16,1-1-2,18-1c.064-.986,0-2.351,0-3H102v-2h20a59.146,59.146,0,0,1-1,11h5v3Zm-29-3c3.951-1.482,6.783-3.9,7-8H71v-3H86v3H81c.277,4.04,2.73,5.982,6,7l-2,3c-2.375-.863-4.765-3.441-6-6-.862,2.838-4.036,5.859-7,7Zm20,2v-15h3v7h5v2H93v6Zm-52-4-2-6-1,6H33l-2-9h2l1,6,2-6h1l2,6,1-6h2l-2,9Zm15-4v-1a3.848,3.848,0,0,1,4-4c1.64,0,2.608,1.335,3,3H58c-.165-.84-.092-1-1-1-1.2,0-2,.392-2,2v1c0,1.574.839,3,2,3,.832,0,.735-1.061,1-2l2,1c-.34,1.483-1.309,2-3,2A3.848,3.848,0,0,1,53,6.623Zm-9,0v-1c0-2.6.9-4,3-4a4.455,4.455,0,0,1,4,3H49c-.164-.838-1.092-1-2-1-1.2,0-1,.392-1,2v1c0,1.574-.161,3,1,3a2.087,2.087,0,0,0,2-2H47v-2h4v2c0,2.005-2.209,3-4,3C44.943,10.624,44,9.229,44,6.623Z" transform="translate(0.566 0.877)" fill="#79684b" stroke="rgba(0,0,0,0)" stroke-miterlimit="10" stroke-width="1"/>
</svg>
