<svg xmlns="http://www.w3.org/2000/svg" width="118.872" height="51.111" viewBox="0 0 118.872 51.111">
  <g id="키즈런logo" transform="translate(-2752.678 -292.972)">
    <path id="Path_9" data-name="Path 9" d="M2758.265,345.434a4.043,4.043,0,0,0-1.158-.923c-.462.471-1.815,2.061-2.84,3.291,0-1.24,0-2.4-.01-3.1a7.858,7.858,0,0,0-1.548,0c-.041,1.866-.041,6.694,0,8.315a6.585,6.585,0,0,0,1.548,0c.01-.718.01-2.02.01-3.394.943,1.148,2.214,2.615,3.208,3.66a4.3,4.3,0,0,0,1.158-.973c-.656-.8-2.429-2.789-3.25-3.609A36.273,36.273,0,0,0,2758.265,345.434Z" transform="translate(0 -9.203)" fill="#172a88"/>
    <path id="Path_10" data-name="Path 10" d="M2773.561,344.74c-.041,1.866-.041,6.694,0,8.315a6.583,6.583,0,0,0,1.547,0c.021-1.692.021-6.511,0-8.315A7.855,7.855,0,0,0,2773.561,344.74Z" transform="translate(-3.724 -9.237)" fill="#172a88"/>
    <path id="Path_11" data-name="Path 11" d="M2792.334,344.744c-.83-.021-1.917-.03-2.583,0-.021.943-.03,7.565,0,8.315.544.01,2.05.01,2.583,0,2.645-.052,3.711-1.5,3.711-4.174C2796.045,346.25,2794.989,344.806,2792.334,344.744Zm.1,6.818a8.577,8.577,0,0,1-1.138.01c.02-.626.02-4.49,0-5.331a10.519,10.519,0,0,1,1.138,0c1.476.072,2.03.8,2.03,2.686C2794.467,350.792,2793.913,351.448,2792.437,351.562Z" transform="translate(-6.617 -9.241)" fill="#172a88"/>
    <path id="Path_12" data-name="Path 12" d="M2814.185,348.2c-1.26-.439-1.568-.727-1.568-1.3,0-.532.369-.871,1.025-.861a2.5,2.5,0,0,1,1.743.739,4.666,4.666,0,0,0,.942-1.078,3.612,3.612,0,0,0-2.6-1.1c-1.743,0-2.707.852-2.707,2.379,0,1.179.708,1.885,2.225,2.409,1.476.513,1.7.8,1.7,1.4s-.451.943-1.107.943a3.656,3.656,0,0,1-2.214-1,6.29,6.29,0,0,0-.953,1.179,4.022,4.022,0,0,0,3.034,1.281c1.865,0,2.8-.913,2.8-2.47C2816.5,349.457,2815.835,348.771,2814.185,348.2Z" transform="translate(-10.355 -9.219)" fill="#172a88"/>
    <path id="Path_13" data-name="Path 13" d="M2852.865,347.327a2.37,2.37,0,0,0-2.553-2.583c-.851-.03-2.337-.021-3.28,0-.021.892-.021,7.165,0,8.315a6.673,6.673,0,0,0,1.558,0c.01-.288.01-1.641.01-3.056h1.128c.635,1.047,1.425,2.266,2.111,3.26a4.13,4.13,0,0,0,1.272-.78c-.359-.594-1.1-1.763-1.722-2.706A2.347,2.347,0,0,0,2852.865,347.327Zm-2.789,1.2c-.5.021-.994.021-1.476.01,0-1.116,0-2.1-.01-2.316.41-.021,1.076-.021,1.486,0,.872.041,1.22.411,1.22,1.169C2851.3,348.1,2850.947,348.5,2850.076,348.526Z" transform="translate(-16.846 -9.241)" fill="#172a88"/>
    <path id="Path_14" data-name="Path 14" d="M2872.751,344.738c.011.636,0,4.05,0,5.095,0,1.487-.441,1.907-1.507,1.907s-1.506-.421-1.506-1.907c0-1.014.01-4.469,0-5.095a6.847,6.847,0,0,0-1.579,0c-.021.677-.01,3.773,0,4.993.021,2.378.779,3.475,3.085,3.475s3.066-1.1,3.086-3.475c.01-1.21.01-4.357,0-4.993A6.857,6.857,0,0,0,2872.751,344.738Z" transform="translate(-20.619 -9.236)" fill="#172a88"/>
    <path id="Path_15" data-name="Path 15" d="M2894.476,344.738c-.031.9-.031,4.572,0,5.311-.5-.953-2.4-4.132-3.177-5.311a5.885,5.885,0,0,0-1.466,0c-.021,1.8-.021,6.622,0,8.315a6.1,6.1,0,0,0,1.548,0c.031-.718.021-4.429,0-5.464.574,1.076,2.615,4.5,3.26,5.464a4.521,4.521,0,0,0,1.383,0c.021-1.621.021-6.511,0-8.315A6.561,6.561,0,0,0,2894.476,344.738Z" transform="translate(-24.489 -9.236)" fill="#172a88"/>
    <path id="Path_16" data-name="Path 16" d="M2773.618,293.458h-19.543a1.057,1.057,0,0,0-1.2,1.2v5.823a1.057,1.057,0,0,0,1.2,1.2H2765.2l-1.6,6.981h-9.771c-.838.039-1.157.358-1.157,1.2v6.1c0,.718.32,1.077,1.037,1.037h7.976l-1.355,5.864-1.476,6.381c-.159.8.279,1.2,1.077,1.2h7.3c.8,0,1.157-.4,1.317-1.2l1.464-6.381,4.519-19.7a12.957,12.957,0,0,0,.279-2.672v-5.823A1.058,1.058,0,0,0,2773.618,293.458Z" transform="translate(0 -0.087)" fill="#172a88"/>
    <path id="Path_17" data-name="Path 17" d="M2794.519,330.345a1.061,1.061,0,0,0,.533-1.037V294.169a1.058,1.058,0,0,0-1.2-1.2H2786.8a1.058,1.058,0,0,0-1.2,1.2v35.138a1.061,1.061,0,0,0,.533,1.037,1.376,1.376,0,0,0,.664.159h7.059A1.377,1.377,0,0,0,2794.519,330.345Z" transform="translate(-5.878)" fill="#172a88"/>
    <path id="Path_18" data-name="Path 18" d="M2888.418,328.648h-.579a13.619,13.619,0,0,0-2.3-.159h-22.174v-2.275a1.057,1.057,0,0,0-1.2-1.2h-7.14a1.058,1.058,0,0,0-1.2,1.2v8.655a1.058,1.058,0,0,0,1.2,1.2h33.384a1.058,1.058,0,0,0,1.2-1.2v-5.026A1.057,1.057,0,0,0,2888.418,328.648Z" transform="translate(-18.064 -5.723)" fill="#172a88"/>
    <path id="Path_19" data-name="Path 19" d="M2882.178,308.248h2.632v11.088a1.058,1.058,0,0,0,1.2,1.2h7.059a1.058,1.058,0,0,0,1.2-1.2V294.169a1.058,1.058,0,0,0-1.2-1.2h-7.059a1.058,1.058,0,0,0-1.2,1.2v5.943h-2.632a1.058,1.058,0,0,0-1.2,1.2v5.744A1.057,1.057,0,0,0,2882.178,308.248Z" transform="translate(-22.911)" fill="#172a88"/>
    <path id="Path_20" data-name="Path 20" d="M2854.647,317.27H2875.9c.838,0,1.157-.359,1.157-1.2v-4.387c0-.718-.319-1.037-1.037-1.037h-13.2v-2.712h10.769a1.057,1.057,0,0,0,1.2-1.2V294.655a1.058,1.058,0,0,0-1.2-1.2h-18.945a1.058,1.058,0,0,0-1.2,1.2v4.227a1.058,1.058,0,0,0,1.2,1.2h10.769v2.672h-10.769a1.058,1.058,0,0,0-1.2,1.2v12.125A1.058,1.058,0,0,0,2854.647,317.27Z" transform="translate(-17.995 -0.087)" fill="#172a88"/>
    <path id="Path_21" data-name="Path 21" d="M2804.625,301.555h33.5a1.059,1.059,0,0,0,1.2-1.2v-5.7a1.059,1.059,0,0,0-1.2-1.2h-33.5a1.058,1.058,0,0,0-1.2,1.2v5.7A1.058,1.058,0,0,0,2804.625,301.555Z" transform="translate(-9.063 -0.087)" fill="#172a88"/>
    <path id="Path_22" data-name="Path 22" d="M2803.283,318.251a.835.835,0,0,0,.611.793.815.815,0,0,0,.228.046.832.832,0,0,0,.29-.058h.02l.016-.007h0l3.457-1.516,8.7,1.92c1.515.32,2.233,0,2.751-1l7.375-14h-11.485l-2.909,5.543-7.857-1.754c-.8-.16-1.2.119-1.2.916v6.3h0Z" transform="translate(-9.036 -2.046)" fill="#172a88"/>
    <path id="Path_23" data-name="Path 23" d="M2843.573,310.484a.838.838,0,0,0-.611-.794.854.854,0,0,0-.229-.046.843.843,0,0,0-.29.058h-.021l-.015.007,0,0-3.315,1.453-7.721-1.706c-1.037-.239-1.4-.08-1.835.758l-2.791,5.3c-.4.8-.2,1.276.718,1.475l14.957,3.31c.837.2,1.156-.04,1.156-.877v-5.7c0-.055-.006-.1-.008-.15l.008,0Z" transform="translate(-13.191 -2.926)" fill="#172a88"/>
    <rect id="Rectangle_7" data-name="Rectangle 7" width="36.694" height="7.578" rx="1.457" transform="translate(2793.968 322.766)" fill="#172a88"/>
  </g>
</svg>
